<?xml version="1.0" encoding="UTF-8" standalone="no"?>
<!-- Created with Inkscape (http://www.inkscape.org/) -->

<svg
   width="82.227058mm"
   height="55.12159mm"
   viewBox="0 0 82.227059 55.12159"
   version="1.1"
   id="svg5"
   inkscape:version="1.1.2 (0a00cf5339, 2022-02-04, custom)"
   sodipodi:docname="logo.svg"
   xmlns:inkscape="http://www.inkscape.org/namespaces/inkscape"
   xmlns:sodipodi="http://sodipodi.sourceforge.net/DTD/sodipodi-0.dtd"
   xmlns="http://www.w3.org/2000/svg"
   xmlns:svg="http://www.w3.org/2000/svg">
  <sodipodi:namedview
     id="namedview7"
     pagecolor="#505050"
     bordercolor="#ffffff"
     borderopacity="1"
     inkscape:pageshadow="0"
     inkscape:pageopacity="0"
     inkscape:pagecheckerboard="1"
     inkscape:document-units="px"
     showgrid="false"
     fit-margin-top="0"
     fit-margin-left="0"
     fit-margin-right="0"
     fit-margin-bottom="0"
     inkscape:zoom="1.6372768"
     inkscape:cx="176.51261"
     inkscape:cy="136.20177"
     inkscape:window-width="1360"
     inkscape:window-height="704"
     inkscape:window-x="0"
     inkscape:window-y="0"
     inkscape:window-maximized="1"
     inkscape:current-layer="layer1"
     showguides="false"
     inkscape:snap-global="false"
     inkscape:showpageshadow="0"
     inkscape:deskcolor="#505050" />
  <defs
     id="defs2">
    <rect
       x="1918.7715"
       y="255.00383"
       width="223.9444"
       height="79.964294"
       id="rect31249-4" />
    <rect
       x="1918.7715"
       y="255.00383"
       width="223.9444"
       height="79.964294"
       id="rect2686" />
    <filter
       inkscape:collect="always"
       style="color-interpolation-filters:sRGB"
       id="filter2688"
       x="-0.14070274"
       y="-0.056338154"
       width="1.2814054"
       height="1.1126763">
      <feGaussianBlur
         inkscape:collect="always"
         stdDeviation="0.79812381"
         id="feGaussianBlur2690" />
    </filter>
    <filter
       inkscape:collect="always"
       style="color-interpolation-filters:sRGB"
       id="filter2692"
       x="-0.028608995"
       y="-0.043153159"
       width="1.057218"
       height="1.0863063">
      <feGaussianBlur
         inkscape:collect="always"
         stdDeviation="0.28156734"
         id="feGaussianBlur2694" />
    </filter>
    <filter
       inkscape:collect="always"
       style="color-interpolation-filters:sRGB"
       id="filter11880"
       x="-0.060451444"
       y="-0.095878027"
       width="1.1209029"
       height="1.1917561">
      <feGaussianBlur
         inkscape:collect="always"
         stdDeviation="1.4314107"
         id="feGaussianBlur11882" />
    </filter>
  </defs>
  <g
     inkscape:label="Layer 1"
     inkscape:groupmode="layer"
     id="layer1"
     transform="translate(84.895176,-32.173128)">
    <g
       id="g1130"
       inkscape:export-filename="try.svg"
       inkscape:export-xdpi="154.45038"
       inkscape:export-ydpi="154.45038">
      <rect
         style="fill:#ffffff;fill-opacity:1;stroke:none;stroke-width:0.258195;filter:url(#filter11880)"
         id="rect11860"
         width="56.828842"
         height="35.830791"
         x="214.54907"
         y="3.7437007"
         ry="1.2457157"
         transform="matrix(1.2908564,0,0,1.2908564,-357.41263,31.775137)" />
      <rect
         style="fill:#161320;fill-opacity:1;stroke:none;stroke-width:0.323782"
         id="rect1007"
         width="71.705208"
         height="44.656303"
         x="-79.634262"
         y="37.405766"
         ry="1.552549" />
      <g
         aria-label="D O T F I L E S"
         id="text39104-7"
         style="font-size:5.45881px;line-height:1.25;font-family:'Bourdos PERSONAL USE ONLY';-inkscape-font-specification:'Bourdos PERSONAL USE ONLY, Normal';white-space:pre;fill:#ffffff;stroke-width:0.515795">
        <path
           d="M -60.283257,73.159332 V 69.27846 h 1.084832 q 0.477113,0 0.855604,0.218565 0.378492,0.2159 0.589061,0.621047 0.213235,0.405146 0.213235,0.92224 v 0.357168 q 0,0.51976 -0.210569,0.92224 -0.21057,0.402481 -0.594392,0.621047 -0.381157,0.218565 -0.876928,0.218565 z m 0.327848,-3.601002 v 3.323797 h 0.73566 q 0.61305,0 0.983546,-0.405146 0.370495,-0.407811 0.370495,-1.100824 v -0.341176 q 0,-0.669024 -0.365164,-1.071505 -0.365165,-0.40248 -0.962222,-0.405146 z"
           style="font-weight:300;font-family:Roboto;-inkscape-font-specification:'Roboto, Light'"
           id="path1027" />
        <path
           d="m -52.513515,71.429465 q 0,0.535753 -0.18658,0.940899 -0.183915,0.405146 -0.527757,0.623711 -0.343841,0.218566 -0.794299,0.218566 -0.679686,0 -1.098159,-0.485109 -0.418473,-0.487775 -0.418473,-1.314059 v -0.399815 q 0,-0.530422 0.18658,-0.938233 0.189246,-0.410477 0.533087,-0.629043 0.343841,-0.221231 0.791634,-0.221231 0.447793,0 0.788969,0.2159 0.343841,0.2159 0.530421,0.610385 0.186581,0.394484 0.194577,0.914244 z m -0.327849,-0.421138 q 0,-0.70101 -0.317186,-1.098159 -0.317187,-0.39715 -0.868932,-0.39715 -0.541083,0 -0.863601,0.399815 -0.319852,0.39715 -0.319852,1.111486 v 0.405146 q 0,0.690348 0.319852,1.095494 0.319852,0.40248 0.868932,0.40248 0.557076,0 0.868932,-0.397149 0.311855,-0.399815 0.311855,-1.111486 z"
           style="font-weight:300;font-family:Roboto;-inkscape-font-specification:'Roboto, Light'"
           id="path1029" />
        <path
           d="m -47.833012,69.55833 h -1.330052 v 3.601002 h -0.327849 V 69.55833 h -1.327386 v -0.27987 h 2.985287 z"
           style="font-weight:300;font-family:Roboto;-inkscape-font-specification:'Roboto, Light'"
           id="path1031" />
        <path
           d="m -43.848188,71.346837 h -1.80983 v 1.812495 h -0.327848 V 69.27846 h 2.404222 v 0.27987 h -2.076374 v 1.508636 h 1.80983 z"
           style="font-weight:300;font-family:Roboto;-inkscape-font-specification:'Roboto, Light'"
           id="path1033" />
        <path
           d="m -41.188084,73.159332 h -0.327848 V 69.27846 h 0.327848 z"
           style="font-weight:300;font-family:Roboto;-inkscape-font-specification:'Roboto, Light'"
           id="path1035" />
        <path
           d="m -38.477336,72.882127 h 1.916447 v 0.277205 H -38.80785 V 69.27846 h 0.330514 z"
           style="font-weight:300;font-family:Roboto;-inkscape-font-specification:'Roboto, Light'"
           id="path1037" />
        <path
           d="m -32.461451,71.298859 h -1.815161 v 1.583268 h 2.087035 v 0.277205 H -34.60446 V 69.27846 h 2.401556 v 0.27987 h -2.073708 v 1.463324 h 1.815161 z"
           style="font-weight:300;font-family:Roboto;-inkscape-font-specification:'Roboto, Light'"
           id="path1039" />
        <path
           d="m -27.975525,72.205107 q 0,-0.322518 -0.226562,-0.509098 -0.226562,-0.189246 -0.82895,-0.357168 -0.602388,-0.170588 -0.879593,-0.370496 -0.394485,-0.282536 -0.394485,-0.740991 0,-0.445127 0.365165,-0.722332 0.36783,-0.279871 0.938233,-0.279871 0.386488,0 0.690347,0.149264 0.306525,0.149265 0.474448,0.415808 0.167922,0.266544 0.167922,0.594392 h -0.330514 q 0,-0.39715 -0.271874,-0.637039 -0.271875,-0.242554 -0.730329,-0.242554 -0.445128,0 -0.709006,0.199907 -0.263878,0.197242 -0.263878,0.517094 0,0.295864 0.237224,0.482444 0.237223,0.186581 0.759649,0.330514 0.522425,0.141268 0.791634,0.295863 0.269209,0.15193 0.405146,0.365165 0.135937,0.213234 0.135937,0.503767 0,0.458455 -0.36783,0.73566 -0.365165,0.277205 -0.964887,0.277205 -0.410477,0 -0.754318,-0.146599 -0.341176,-0.146599 -0.51976,-0.410477 -0.175919,-0.263878 -0.175919,-0.605053 h 0.327849 q 0,0.410476 0.306525,0.6477 0.306525,0.237224 0.815623,0.237224 0.453124,0 0.727663,-0.199908 0.27454,-0.199907 0.27454,-0.530421 z"
           style="font-weight:300;font-family:Roboto;-inkscape-font-specification:'Roboto, Light'"
           id="path1041" />
      </g>
      <g
         id="g1966">
        <g
           aria-label="Voilà"
           transform="rotate(-0.87345181)"
           id="text1797-3"
           style="font-size:21.533px;line-height:1.25;font-family:'Bourdos PERSONAL USE ONLY';-inkscape-font-specification:'Bourdos PERSONAL USE ONLY, Normal';white-space:pre;fill:#ffffff;stroke-width:2.03462">
          <path
             d="m -58.174526,65.646953 c 0.990518,0.322995 2.239432,-1.421178 3.725209,-5.232519 0.258396,-0.710589 0.473726,-1.421178 0.710589,-2.1533 l 0.301462,-1.033584 c 0.0646,0.02153 0.150731,0.0646 0.236863,0.08613 0.150731,0.0646 0.301462,0.129198 0.473726,0.172264 0.04307,0.02153 0.0646,0.02153 0.107665,0.02153 0.107665,0.04307 0.193797,0.0646 0.258396,0.0646 h 0.129198 c 0.08613,0 0.150731,-0.04307 0.236863,-0.107665 0.04307,-0.0646 0.0646,-0.107665 0.0646,-0.150731 0,-0.02153 -0.02153,-0.04307 -0.04307,-0.0646 -0.0646,-0.04307 -0.150731,-0.08613 -0.258396,-0.107665 l -0.150731,-0.04307 c -0.559858,-0.193797 -0.839787,-0.473726 -0.839787,-0.882853 0,-0.0646 0,-0.129198 0.02153,-0.193797 0.473726,-2.304031 0.904386,-4.629596 1.270447,-6.933627 0.08613,-0.581391 0.107665,-1.162782 0.107665,-1.765706 v -0.344528 c -0.02153,-0.150731 -0.02153,-0.322995 -0.02153,-0.473726 0,-0.258396 -0.08613,-0.516792 -0.236863,-0.775188 -0.107665,-0.150731 -0.193797,-0.236863 -0.301462,-0.258396 h -0.193797 c -0.172264,0 -0.366061,0.0646 -0.538325,0.193797 -0.172264,0.150731 -0.322995,0.322995 -0.43066,0.516792 -0.21533,0.409127 -0.409127,0.818254 -0.559858,1.227381 -0.473726,1.485777 -0.710589,2.993087 -0.710589,4.52193 -0.02153,0.258396 -0.04307,0.516792 -0.04307,0.753656 0,1.270447 0.258396,2.497828 0.753655,3.703676 0.02153,0.0646 0.04307,0.150731 0.04307,0.21533 0,0.08613 -0.02153,0.172264 -0.04307,0.258396 -0.387594,1.873371 -1.012051,3.703676 -1.851838,5.512448 -0.775188,1.593442 -1.464244,2.433229 -2.002569,2.519361 -0.538325,0.107665 -1.205848,-0.667523 -2.002569,-2.304031 -0.925919,-2.540894 -1.50731,-5.124854 -1.744173,-7.75188 -0.08613,-1.012051 -0.172264,-2.002569 -0.21533,-3.014621 -0.02153,-0.538325 -0.04307,-1.055117 -0.08613,-1.571909 -0.02153,-0.322995 -0.0646,-0.624457 -0.150731,-0.904386 0,-0.02153 -0.02153,-0.0646 -0.0646,-0.08613 l -0.129198,-0.08613 c -0.04307,-0.02153 -0.08613,-0.02153 -0.107665,-0.02153 l -0.236863,0.0646 c -0.0646,0.04307 -0.129198,0.08613 -0.172264,0.150731 -0.04307,0.02153 -0.0646,0.0646 -0.0646,0.107665 -0.02153,0.04307 -0.02153,0.08613 -0.02153,0.129198 v 0.0646 c -0.02153,0.129198 -0.02153,0.258396 -0.02153,0.387594 -0.04307,0.366061 -0.08613,0.710589 -0.08613,1.055117 0,0.236863 0,0.495259 -0.02153,0.732122 -0.02153,0.258396 -0.02153,0.516792 -0.02153,0.775189 0,0.710589 0.0646,1.421178 0.193797,2.131767 0.02153,0.0646 0.04307,0.107665 0.04307,0.172264 0,0.107665 0.04307,0.21533 0.08613,0.322995 0.0646,0.107665 0.172264,0.172264 0.366061,0.236863 0.0646,0.02153 0.08613,0.0646 0.107665,0.107665 0.02153,0.0646 0.02153,0.107665 0.02153,0.172264 v 0.02153 l 0.129198,0.710589 c 0.02153,0.172264 0.04307,0.344528 0.08613,0.516792 0.258396,1.959503 0.753655,3.897473 1.485777,5.81391 0.602924,1.571909 1.399645,2.497828 2.411696,2.820823 z m 4.069737,-13.501192 v -0.21533 c 0.02153,-1.270447 0.150731,-2.454762 0.43066,-3.552945 0.258396,-1.098183 0.602924,-1.851838 1.033584,-2.260965 0.129198,0.366061 0.172264,0.732122 0.172264,1.098183 0,0.172264 -0.02153,0.366061 -0.04307,0.559858 -0.236863,1.765706 -0.473726,3.531412 -0.775188,5.275586 -0.08613,0.452193 -0.172264,0.925919 -0.279929,1.378112 l -0.129198,0.64599 c -0.279929,-0.796721 -0.409127,-1.765706 -0.409127,-2.928489 z"
             id="path1062" />
          <path
             d="m -50.336497,61.814079 c 0.21533,0 0.43066,-0.08613 0.624457,-0.258396 0.21533,-0.193797 0.387594,-0.43066 0.495259,-0.710589 0.258396,-0.732122 0.387594,-1.356579 0.387594,-1.916437 0,-0.172264 -0.02153,-0.344528 -0.04307,-0.516792 -0.107665,-0.667523 -0.301462,-1.205848 -0.581391,-1.614975 0.258396,0.08613 0.538325,0.129198 0.86132,0.150731 0.301462,0.02153 0.495259,0.02153 0.559858,0.02153 0.495259,0 0.990518,-0.08613 1.50731,-0.279929 0.0646,-0.04307 0.08613,-0.08613 0.08613,-0.172264 v -0.04307 c 0,-0.107665 -0.04307,-0.172264 -0.08613,-0.236863 -0.0646,-0.04307 -0.107665,-0.0646 -0.150731,-0.0646 -0.04307,0 -0.0646,0 -0.107665,0.02153 -0.129198,0.107665 -0.344528,0.172264 -0.667523,0.21533 -0.322995,0.04307 -0.602924,0.0646 -0.818254,0.0646 -0.236863,0 -0.516792,-0.02153 -0.796721,-0.0646 -0.538325,-0.0646 -0.990518,-0.279929 -1.399645,-0.602924 -0.150731,-0.129198 -0.301462,-0.193797 -0.43066,-0.193797 -0.04307,0 -0.0646,0 -0.107665,0.02153 -0.150731,0.0646 -0.21533,0.129198 -0.21533,0.21533 v 0.150731 c 0,0.150731 0.08613,0.279929 0.279929,0.409127 l -0.172264,0.559858 -0.0646,0.258396 c -0.258396,0.732122 -0.366061,1.485777 -0.366061,2.282498 0,0.21533 0,0.43066 0.02153,0.64599 0.04307,0.366061 0.150731,0.732122 0.301462,1.055117 0.172264,0.322995 0.344528,0.516792 0.516792,0.559858 0.193797,0.02153 0.301462,0.04307 0.366061,0.04307 z m -0.667523,-1.894904 v -0.193797 c 0,-1.055117 0.21533,-2.067168 0.624457,-3.100752 0.581391,0.559858 0.904386,1.184315 0.947452,1.851838 0.02153,0.172264 0.02153,0.322995 0.02153,0.495259 0,0.581391 -0.107665,1.141249 -0.366061,1.679574 -0.0646,0.150731 -0.129198,0.258396 -0.236863,0.366061 -0.129198,0.150731 -0.258396,0.21533 -0.366061,0.21533 -0.150731,0 -0.279929,-0.129198 -0.387594,-0.387594 -0.129198,-0.301462 -0.236863,-0.602924 -0.236863,-0.925919 z"
             id="path1064" />
          <path
             d="m -39.462319,64.591836 c 0.107665,0 0.193797,0 0.258396,-0.04307 0.0646,-0.04307 0.107665,-0.08613 0.107665,-0.150731 0,-0.08613 -0.0646,-0.172264 -0.150731,-0.279929 -0.04307,-0.02153 -0.129198,-0.04307 -0.236863,-0.0646 -0.150731,0 -0.344528,-0.0646 -0.581391,-0.193797 -0.236863,-0.107665 -0.473726,-0.387594 -0.667523,-0.839787 -0.452193,-1.098183 -0.732122,-2.131767 -0.839787,-3.100752 -0.08613,-0.990518 -0.129198,-1.93797 -0.129198,-2.842356 v -1.098183 c 0.02153,-0.796721 0.193797,-1.528843 0.538325,-2.239432 0.43066,-0.882853 0.818254,-1.830306 1.162782,-2.885423 0.344528,-1.055117 0.538325,-2.067168 0.559858,-3.079219 0,-0.172264 -0.02153,-0.344528 -0.08613,-0.516792 -0.0646,-0.172264 -0.193797,-0.279929 -0.409127,-0.344528 h -0.107665 c -0.129198,0 -0.258396,0.04307 -0.344528,0.129198 -0.107665,0.107665 -0.21533,0.258396 -0.301462,0.409127 -0.409127,0.796721 -0.710589,1.744173 -0.947452,2.885422 -0.236863,1.141249 -0.387594,2.153301 -0.452193,3.036154 -0.04307,0.839787 -0.258396,1.614975 -0.624457,2.347097 -0.172264,0.322995 -0.366061,0.710589 -0.602924,1.184315 -0.344528,0.732122 -0.710589,1.464244 -1.119716,2.217899 -0.409127,0.753655 -0.818254,1.270447 -1.227381,1.593442 -0.150731,0.107665 -0.301462,0.150731 -0.409127,0.150731 -0.150731,0 -0.258396,-0.08613 -0.344528,-0.258396 -0.150731,-0.322995 -0.21533,-0.775188 -0.21533,-1.378112 0,-0.602924 0.04307,-1.227381 0.150731,-1.851838 0.107665,-0.624457 0.21533,-1.141249 0.322995,-1.550376 l 0.02153,-0.08613 c 0,-0.0646 -0.04307,-0.150731 -0.107665,-0.193797 -0.0646,-0.0646 -0.150731,-0.08613 -0.236863,-0.08613 h -0.0646 c -0.107665,0 -0.193797,0.0646 -0.236863,0.193797 -0.193797,0.710589 -0.301462,1.399645 -0.366061,2.024102 -0.0646,0.64599 -0.107665,1.119716 -0.107665,1.399645 0,0.559858 0.0646,1.033584 0.172264,1.464244 0.193797,0.473726 0.387594,0.732122 0.602924,0.796721 0.21533,0.0646 0.366061,0.107665 0.452193,0.107665 0.279929,0 0.559858,-0.129198 0.86132,-0.366061 0.452193,-0.43066 0.882853,-1.033584 1.313513,-1.830305 0.43066,-0.796721 0.818254,-1.550376 1.162782,-2.260965 l 0.258396,-0.559858 c 0.04307,0.02153 0.08613,0.02153 0.129198,0.02153 v 0.150731 c 0,1.141249 0.08613,2.454762 0.258396,3.919006 0.172264,1.485777 0.602924,2.648559 1.29198,3.488346 0.258396,0.279929 0.516792,0.43066 0.753655,0.495259 0.236863,0.0646 0.409127,0.08613 0.538325,0.08613 z M -46.28828,54.21293 c -0.02153,0.236863 0.02153,0.387594 0.129198,0.452193 0.0646,0.02153 0.129198,0.04307 0.172264,0.04307 0.02153,0 0.04307,-0.02153 0.0646,-0.04307 0.02153,-0.02153 0.02153,-0.0646 0.02153,-0.08613 0.02153,-0.02153 0.02153,-0.04307 0.02153,-0.0646 l 0.21533,-0.516792 c 0.0646,-0.193797 0.150731,-0.387594 0.21533,-0.581391 0,-0.02153 0.02153,-0.04307 0.02153,-0.0646 0,-0.08613 -0.04307,-0.150731 -0.107665,-0.193797 -0.08613,-0.0646 -0.172264,-0.08613 -0.236863,-0.107665 h -0.129198 c -0.0646,0 -0.107665,0.02153 -0.150731,0.0646 -0.04307,0.0646 -0.08613,0.21533 -0.150731,0.43066 -0.0646,0.236863 -0.08613,0.452193 -0.08613,0.667523 z m 4.823392,-1.464244 c 0.02153,-0.0646 0.02153,-0.107665 0.02153,-0.150731 0.129198,-0.882854 0.279929,-1.744174 0.473726,-2.562428 0.193797,-0.796721 0.473726,-1.571909 0.839787,-2.325564 0.02153,0.150731 0.04307,0.322995 0.04307,0.495259 0,0.516792 -0.107665,1.141249 -0.322995,1.916437 -0.279929,1.055117 -0.624457,1.916437 -1.055118,2.627027 z"
             id="path1066" />
          <path
             d="m -35.371065,61.555683 c 0.43066,-0.0646 0.86132,-0.43066 1.270447,-1.098183 0.409127,-0.667523 0.753655,-1.378112 1.07665,-2.088701 l 0.344528,-0.732122 c 0.04307,-0.08613 0.0646,-0.150731 0.0646,-0.21533 0,-0.04307 0,-0.08613 -0.02153,-0.107665 -0.0646,-0.0646 -0.107665,-0.107665 -0.150731,-0.129198 h -0.107665 c -0.08613,0 -0.150731,0.04307 -0.193797,0.129198 -0.107665,0.21533 -0.21533,0.473726 -0.366061,0.796721 -0.258396,0.581391 -0.538325,1.162782 -0.86132,1.744173 -0.322995,0.581391 -0.624457,0.925919 -0.925919,1.07665 -0.04307,0.02153 -0.08613,0.02153 -0.129198,0.02153 -0.21533,0 -0.366061,-0.150731 -0.452193,-0.452193 -0.107665,-0.366061 -0.172264,-0.839787 -0.172264,-1.378112 0,-0.559858 0.04307,-1.098183 0.129198,-1.614975 0.0646,-0.495259 0.150731,-0.86132 0.258396,-1.07665 0.02153,-0.04307 0.04307,-0.107665 0.04307,-0.150731 0,-0.0646 -0.04307,-0.129198 -0.08613,-0.193797 -0.08613,-0.08613 -0.172264,-0.129198 -0.236863,-0.150731 h -0.107665 c -0.107665,0 -0.193797,0.04307 -0.236863,0.129198 -0.02153,0.04307 -0.02153,0.08613 -0.04307,0.150731 -0.02153,-0.04307 -0.0646,-0.107665 -0.08613,-0.21533 l -0.0646,-0.193797 c -0.02153,-0.0646 -0.04307,-0.107665 -0.0646,-0.129198 -0.236863,-0.409127 -0.516792,-0.624457 -0.818254,-0.624457 -0.236863,0 -0.473726,0.107665 -0.732122,0.344528 -0.322995,0.344528 -0.581391,0.732122 -0.796721,1.184315 -0.43066,0.904386 -0.732122,1.873371 -0.732122,2.906955 v 0.193797 c 0,0.366061 0.04307,0.732122 0.107665,1.098183 0.107665,0.366061 0.21533,0.559858 0.344528,0.581391 0.129198,0.04307 0.193797,0.0646 0.236863,0.0646 0.193797,0 0.366061,-0.129198 0.559858,-0.344528 0.193797,-0.258396 0.344528,-0.538325 0.495259,-0.86132 0.02153,-0.02153 0.04307,-0.0646 0.0646,-0.107665 0.21533,-0.452193 0.43066,-0.904386 0.667523,-1.356579 l 0.516792,-1.055117 v -0.04307 l 0.02153,-0.02153 c -0.04307,0.322995 -0.0646,0.667523 -0.0646,1.033584 0,0.21533 0,0.43066 0.02153,0.667523 0.02153,0.602924 0.150731,1.119716 0.344528,1.550376 0.193797,0.43066 0.473726,0.64599 0.882853,0.667523 z m -3.617544,-1.464244 v -0.172264 c 0,-0.602924 0.0646,-1.184315 0.21533,-1.765706 0.150731,-0.624457 0.387594,-1.227381 0.689056,-1.765706 0.129198,-0.236863 0.279929,-0.43066 0.473726,-0.581391 0.107665,-0.08613 0.21533,-0.129198 0.301462,-0.129198 0.150731,0 0.279929,0.107665 0.366061,0.344528 0.08613,0.172264 0.129198,0.366061 0.129198,0.559858 0,0.150731 -0.02153,0.301462 -0.08613,0.452193 -0.236863,0.452193 -0.452193,0.882853 -0.667523,1.335046 -0.301462,0.624457 -0.602924,1.270447 -0.925919,1.916437 -0.02153,0.02153 -0.04307,0.08613 -0.08613,0.150731 l -0.129198,0.193797 c -0.0646,0.0646 -0.107665,0.08613 -0.150731,0.08613 -0.02153,-0.02153 -0.04307,-0.0646 -0.0646,-0.150731 -0.02153,-0.08613 -0.04307,-0.172264 -0.04307,-0.279929 -0.02153,-0.08613 -0.02153,-0.150731 -0.02153,-0.193797 z m 0.904386,-9.366856 c 0,0.409127 1.270447,2.024103 1.485777,2.347098 0.08613,0.150731 0.193797,0.193797 0.301462,0.193797 0.150731,0 0.279929,-0.107665 0.279929,-0.279929 0,-0.0646 0,-0.129198 -0.0646,-0.21533 l -1.421178,-2.131768 c -0.0646,-0.08613 -0.193797,-0.129198 -0.236863,-0.172264 -0.236863,0 -0.344528,0.107665 -0.344527,0.258396 z"
             id="path1068" />
        </g>
        <g
           aria-label="Voilà"
           transform="matrix(1.2907064,-0.01967784,0.01967784,1.2907064,-357.56654,30.938147)"
           id="text2678"
           style="font-size:16.6812px;line-height:1.25;font-family:'Bourdos PERSONAL USE ONLY';-inkscape-font-specification:'Bourdos PERSONAL USE ONLY, Normal';white-space:pre;opacity:0.750264;fill:#ffffff;stroke-width:1.57618;filter:url(#filter2692)">
          <path
             d="m 232.66966,31.529707 c 0.76733,0.250218 1.73484,-1.100959 2.88585,-4.053531 0.20017,-0.55048 0.36698,-1.10096 0.55047,-1.66812 l 0.23354,-0.800698 c 0.05,0.01668 0.11677,0.05004 0.18349,0.06673 0.11677,0.05004 0.23354,0.100087 0.36699,0.133449 0.0334,0.01668 0.05,0.01668 0.0834,0.01668 0.0834,0.03336 0.15013,0.05004 0.20017,0.05004 h 0.10009 c 0.0667,0 0.11677,-0.03336 0.18349,-0.08341 0.0334,-0.05004 0.05,-0.08341 0.05,-0.116768 0,-0.01668 -0.0167,-0.03336 -0.0334,-0.05004 -0.05,-0.03336 -0.11677,-0.06672 -0.20017,-0.08341 l -0.11677,-0.03336 c -0.43371,-0.150131 -0.65057,-0.366987 -0.65057,-0.683929 0,-0.05004 0,-0.100088 0.0167,-0.150131 0.36699,-1.784889 0.70062,-3.586458 0.9842,-5.371347 0.0667,-0.450392 0.0834,-0.900784 0.0834,-1.367858 v -0.266899 c -0.0167,-0.116769 -0.0167,-0.250218 -0.0167,-0.366987 0,-0.200174 -0.0667,-0.400348 -0.18349,-0.600523 -0.0834,-0.116768 -0.15013,-0.183493 -0.23354,-0.200174 h -0.15013 c -0.13345,0 -0.28358,0.05004 -0.41703,0.150131 -0.13345,0.116768 -0.25022,0.250218 -0.33362,0.400348 -0.16682,0.316943 -0.31695,0.633886 -0.43372,0.950829 -0.36698,1.151003 -0.55048,2.318687 -0.55048,3.503052 -0.0167,0.200174 -0.0334,0.400349 -0.0334,0.583842 0,0.984191 0.20018,1.935019 0.58384,2.869166 0.0167,0.05004 0.0334,0.116769 0.0334,0.166812 0,0.06672 -0.0167,0.13345 -0.0334,0.200175 -0.30026,1.451264 -0.78401,2.869166 -1.43458,4.270387 -0.60052,1.234409 -1.13432,1.884975 -1.55135,1.9517 -0.41703,0.08341 -0.93415,-0.517117 -1.55135,-1.784888 -0.71729,-1.968382 -1.16769,-3.970126 -1.35118,-6.005232 -0.0667,-0.784017 -0.13345,-1.551352 -0.16681,-2.335368 -0.0167,-0.41703 -0.0334,-0.817379 -0.0667,-1.217728 -0.0167,-0.250218 -0.05,-0.483755 -0.11676,-0.70061 0,-0.01668 -0.0167,-0.05004 -0.05,-0.06672 l -0.10009,-0.06673 c -0.0334,-0.01668 -0.0667,-0.01668 -0.0834,-0.01668 l -0.18349,0.05004 c -0.05,0.03336 -0.10009,0.06672 -0.13345,0.116768 -0.0334,0.01668 -0.05,0.05004 -0.05,0.08341 -0.0167,0.03336 -0.0167,0.06672 -0.0167,0.100087 v 0.05004 c -0.0167,0.100087 -0.0167,0.200174 -0.0167,0.300261 -0.0334,0.283581 -0.0667,0.55048 -0.0667,0.817379 0,0.183493 0,0.383668 -0.0167,0.567161 -0.0167,0.200174 -0.0167,0.400349 -0.0167,0.600523 0,0.55048 0.05,1.100959 0.15013,1.651439 0.0167,0.05004 0.0334,0.08341 0.0334,0.13345 0,0.08341 0.0334,0.166812 0.0667,0.250218 0.05,0.08341 0.13345,0.133449 0.28358,0.183493 0.05,0.01668 0.0667,0.05004 0.0834,0.08341 0.0167,0.05004 0.0167,0.08341 0.0167,0.133449 v 0.01668 l 0.10009,0.550479 c 0.0167,0.13345 0.0334,0.266899 0.0667,0.400349 0.20017,1.517989 0.58384,3.019297 1.151,4.503924 0.46708,1.217728 1.08428,1.935019 1.8683,2.185237 z m 3.15274,-10.459112 v -0.166812 c 0.0167,-0.984191 0.11677,-1.901657 0.33363,-2.752398 0.20017,-0.850741 0.46707,-1.434583 0.8007,-1.751526 0.10008,0.28358 0.13345,0.567161 0.13345,0.850741 0,0.13345 -0.0167,0.28358 -0.0334,0.433711 -0.18349,1.367859 -0.36698,2.735717 -0.60052,4.086894 -0.0667,0.350305 -0.13345,0.717292 -0.21686,1.067597 l -0.10008,0.500436 c -0.21686,-0.617204 -0.31695,-1.367858 -0.31695,-2.268643 z"
             id="path1071" />
          <path
             d="m 238.74163,28.560454 c 0.16681,0 0.33362,-0.06673 0.48375,-0.200175 0.16681,-0.150131 0.30026,-0.333624 0.38367,-0.550479 0.20017,-0.567161 0.30026,-1.050916 0.30026,-1.484627 0,-0.13345 -0.0167,-0.266899 -0.0334,-0.400349 -0.0834,-0.517117 -0.23354,-0.934147 -0.45039,-1.25109 0.20017,0.06673 0.41703,0.100087 0.66724,0.116768 0.23354,0.01668 0.38367,0.01668 0.43372,0.01668 0.38366,0 0.76733,-0.06672 1.16768,-0.216856 0.05,-0.03336 0.0667,-0.06672 0.0667,-0.13345 v -0.03336 c 0,-0.08341 -0.0334,-0.13345 -0.0667,-0.183493 -0.05,-0.03336 -0.0834,-0.05004 -0.11677,-0.05004 -0.0334,0 -0.05,0 -0.0834,0.01668 -0.10009,0.08341 -0.2669,0.13345 -0.51712,0.166812 -0.25022,0.03336 -0.46708,0.05004 -0.63389,0.05004 -0.18349,0 -0.40035,-0.01668 -0.6172,-0.05004 -0.41703,-0.05004 -0.76734,-0.216855 -1.08428,-0.467073 -0.11677,-0.100087 -0.23354,-0.150131 -0.33362,-0.150131 -0.0334,0 -0.05,0 -0.0834,0.01668 -0.11677,0.05004 -0.16681,0.100087 -0.16681,0.166812 v 0.116769 c 0,0.116768 0.0667,0.216855 0.21685,0.316942 l -0.13345,0.433712 -0.05,0.200174 c -0.20017,0.567161 -0.28358,1.151003 -0.28358,1.768207 0,0.166812 0,0.333624 0.0167,0.500436 0.0334,0.283581 0.11677,0.567161 0.23354,0.817379 0.13345,0.250218 0.2669,0.400349 0.40035,0.433711 0.15013,0.01668 0.23353,0.03336 0.28358,0.03336 z m -0.51712,-1.467946 v -0.150131 c 0,-0.817379 0.16681,-1.601395 0.48376,-2.402093 0.45039,0.433712 0.70061,0.917466 0.73397,1.434584 0.0167,0.133449 0.0167,0.250218 0.0167,0.383667 0,0.450393 -0.0834,0.884104 -0.28358,1.301134 -0.05,0.116768 -0.10009,0.200174 -0.18349,0.28358 -0.10009,0.116769 -0.20018,0.166812 -0.28358,0.166812 -0.11677,0 -0.21686,-0.100087 -0.30027,-0.300261 -0.10008,-0.233537 -0.18349,-0.467074 -0.18349,-0.717292 z"
             id="path1073" />
          <path
             d="m 247.16564,30.712328 c 0.0834,0 0.15013,0 0.20018,-0.03336 0.05,-0.03336 0.0834,-0.06672 0.0834,-0.116768 0,-0.06672 -0.05,-0.13345 -0.11677,-0.216856 -0.0334,-0.01668 -0.10008,-0.03336 -0.18349,-0.05004 -0.11677,0 -0.2669,-0.05004 -0.45039,-0.15013 -0.18349,-0.08341 -0.36699,-0.300262 -0.51712,-0.650567 -0.3503,-0.850741 -0.56716,-1.651439 -0.65057,-2.402093 -0.0667,-0.767335 -0.10008,-1.501308 -0.10008,-2.201918 v -0.850742 c 0.0167,-0.617204 0.15013,-1.184365 0.41703,-1.734844 0.33362,-0.68393 0.63388,-1.417902 0.90078,-2.235281 0.2669,-0.817379 0.41703,-1.601395 0.43371,-2.385412 0,-0.133449 -0.0167,-0.266899 -0.0667,-0.400349 -0.05,-0.133449 -0.15013,-0.216855 -0.31694,-0.266899 h -0.0834 c -0.10009,0 -0.20017,0.03336 -0.2669,0.100087 -0.0834,0.08341 -0.16681,0.200175 -0.23354,0.316943 -0.31694,0.617205 -0.55048,1.351177 -0.73397,2.235281 -0.18349,0.884104 -0.30026,1.66812 -0.3503,2.352049 -0.0334,0.650567 -0.20018,1.25109 -0.48376,1.818251 -0.13345,0.250218 -0.28358,0.55048 -0.46707,0.917466 -0.2669,0.567161 -0.55048,1.134322 -0.86743,1.718164 -0.31694,0.583842 -0.63388,0.98419 -0.95082,1.234408 -0.11677,0.08341 -0.23354,0.116769 -0.31695,0.116769 -0.11676,0 -0.20017,-0.06673 -0.2669,-0.200175 -0.11676,-0.250218 -0.16681,-0.600523 -0.16681,-1.067596 0,-0.467074 0.0334,-0.950829 0.11677,-1.434584 0.0834,-0.483754 0.16681,-0.884103 0.25022,-1.201046 l 0.0167,-0.06672 c 0,-0.05004 -0.0334,-0.116768 -0.0834,-0.150131 -0.05,-0.05004 -0.11676,-0.06672 -0.18349,-0.06672 h -0.05 c -0.0834,0 -0.15013,0.05004 -0.1835,0.15013 -0.15013,0.55048 -0.23353,1.084278 -0.28358,1.568033 -0.05,0.500436 -0.0834,0.867423 -0.0834,1.084278 0,0.433711 0.05,0.800698 0.13345,1.134322 0.15013,0.366986 0.30026,0.567161 0.46707,0.617204 0.16681,0.05004 0.28358,0.08341 0.35031,0.08341 0.21685,0 0.43371,-0.100087 0.66724,-0.28358 0.35031,-0.333624 0.68393,-0.800698 1.01756,-1.417902 0.33362,-0.617205 0.63388,-1.201047 0.90078,-1.751526 l 0.20018,-0.433711 c 0.0334,0.01668 0.0667,0.01668 0.10008,0.01668 v 0.116768 c 0,0.884104 0.0667,1.901657 0.20018,3.035979 0.13345,1.151002 0.46707,2.051787 1.00087,2.702354 0.20017,0.216856 0.40035,0.333624 0.58384,0.383668 0.1835,0.05004 0.31694,0.06672 0.41703,0.06672 z M 241.8777,22.67199 c -0.0167,0.183493 0.0167,0.300262 0.10009,0.350305 0.05,0.01668 0.10009,0.03336 0.13345,0.03336 0.0167,0 0.0334,-0.01668 0.05,-0.03336 0.0167,-0.01668 0.0167,-0.05004 0.0167,-0.06672 0.0167,-0.01668 0.0167,-0.03336 0.0167,-0.05004 l 0.16682,-0.400349 c 0.05,-0.150131 0.11676,-0.300262 0.16681,-0.450392 0,-0.01668 0.0167,-0.03336 0.0167,-0.05004 0,-0.06673 -0.0334,-0.116768 -0.0834,-0.150131 -0.0667,-0.05004 -0.13345,-0.06672 -0.18349,-0.08341 h -0.10009 c -0.05,0 -0.0834,0.01668 -0.11677,0.05004 -0.0334,0.05004 -0.0667,0.166812 -0.11676,0.333624 -0.05,0.183493 -0.0667,0.350305 -0.0667,0.517117 z m 3.73659,-1.134322 c 0.0167,-0.05004 0.0167,-0.08341 0.0167,-0.116768 0.10009,-0.683929 0.21686,-1.351177 0.36699,-1.985063 0.15013,-0.617204 0.36698,-1.217727 0.65056,-1.801569 0.0167,0.116768 0.0334,0.250218 0.0334,0.383667 0,0.400349 -0.0834,0.884104 -0.25022,1.484627 -0.21686,0.817379 -0.48376,1.484627 -0.81738,2.035106 z"
             id="path1075" />
          <path
             d="m 250.33506,28.360279 c 0.33362,-0.05004 0.66725,-0.333624 0.98419,-0.850741 0.31694,-0.517117 0.58384,-1.067597 0.83406,-1.618076 l 0.2669,-0.567161 c 0.0334,-0.06672 0.05,-0.116769 0.05,-0.166812 0,-0.03336 0,-0.06673 -0.0167,-0.08341 -0.05,-0.05004 -0.0834,-0.08341 -0.11677,-0.100087 h -0.0834 c -0.0667,0 -0.11677,0.03336 -0.15014,0.100087 -0.0834,0.166812 -0.16681,0.366986 -0.28358,0.617204 -0.20017,0.450393 -0.41703,0.900785 -0.66724,1.351177 -0.25022,0.450393 -0.48376,0.717292 -0.7173,0.83406 -0.0334,0.01668 -0.0667,0.01668 -0.10008,0.01668 -0.16681,0 -0.28358,-0.116769 -0.35031,-0.350306 -0.0834,-0.28358 -0.13345,-0.650566 -0.13345,-1.067596 0,-0.433712 0.0334,-0.850742 0.10009,-1.25109 0.05,-0.383668 0.11677,-0.667248 0.20017,-0.83406 0.0167,-0.03336 0.0334,-0.08341 0.0334,-0.116769 0,-0.05004 -0.0334,-0.100087 -0.0667,-0.150131 -0.0667,-0.06672 -0.13345,-0.100087 -0.18349,-0.116768 h -0.0834 c -0.0834,0 -0.15013,0.03336 -0.18349,0.100087 -0.0167,0.03336 -0.0167,0.06672 -0.0334,0.116769 -0.0167,-0.03336 -0.05,-0.08341 -0.0667,-0.166812 l -0.05,-0.150131 c -0.0167,-0.05004 -0.0334,-0.08341 -0.05,-0.100087 -0.18349,-0.316943 -0.40034,-0.483755 -0.63388,-0.483755 -0.18349,0 -0.36699,0.08341 -0.56716,0.266899 -0.25022,0.266899 -0.45039,0.567161 -0.61721,0.917466 -0.33362,0.70061 -0.56716,1.451264 -0.56716,2.251962 v 0.150131 c 0,0.28358 0.0334,0.567161 0.0834,0.850741 0.0834,0.28358 0.16681,0.433711 0.2669,0.450392 0.10009,0.03336 0.15013,0.05004 0.18349,0.05004 0.15013,0 0.28358,-0.100087 0.43371,-0.266899 0.15013,-0.200175 0.2669,-0.41703 0.38367,-0.667248 0.0167,-0.01668 0.0334,-0.05004 0.05,-0.08341 0.16682,-0.350305 0.33363,-0.700611 0.51712,-1.050916 l 0.40035,-0.817379 v -0.03336 l 0.0167,-0.01668 c -0.0334,0.250218 -0.05,0.517117 -0.05,0.800697 0,0.166812 0,0.333624 0.0167,0.517118 0.0167,0.467073 0.11677,0.867422 0.2669,1.201046 0.15013,0.333624 0.36698,0.500436 0.68393,0.517117 z m -2.80244,-1.134321 v -0.13345 c 0,-0.467074 0.05,-0.917466 0.16681,-1.367858 0.11677,-0.483755 0.30026,-0.950829 0.5338,-1.367859 0.10008,-0.183493 0.21685,-0.333624 0.36698,-0.450392 0.0834,-0.06673 0.16681,-0.100087 0.23354,-0.100087 0.11677,0 0.21685,0.08341 0.28358,0.266899 0.0667,0.133449 0.10009,0.28358 0.10009,0.433711 0,0.116768 -0.0167,0.233537 -0.0667,0.350305 -0.18349,0.350305 -0.3503,0.683929 -0.51712,1.034235 -0.23353,0.483754 -0.46707,0.98419 -0.71729,1.484626 -0.0167,0.01668 -0.0334,0.06673 -0.0667,0.116769 l -0.10009,0.150131 c -0.05,0.05004 -0.0834,0.06672 -0.11677,0.06672 -0.0167,-0.01668 -0.0334,-0.05004 -0.05,-0.116768 -0.0167,-0.06672 -0.0334,-0.13345 -0.0334,-0.216856 -0.0167,-0.06672 -0.0167,-0.116768 -0.0167,-0.15013 z m 0.70061,-7.256322 c 0,0.316942 0.98419,1.568032 1.151,1.81825 0.0667,0.116769 0.15013,0.150131 0.23354,0.150131 0.11676,0 0.21685,-0.08341 0.21685,-0.216855 0,-0.05004 0,-0.100088 -0.05,-0.166812 l -1.10096,-1.651439 c -0.05,-0.06672 -0.15013,-0.100087 -0.18349,-0.13345 -0.1835,0 -0.2669,0.08341 -0.2669,0.200175 z"
             id="path1077" />
        </g>
        <g
           aria-label="!"
           transform="matrix(0.45376564,-0.03850924,0.03850924,0.45376564,-913.05005,3.0835857)"
           id="text31247-9"
           style="font-size:40px;line-height:1.25;white-space:pre;shape-inside:url(#rect31249-4);fill:#ffffff">
          <path
             d="m 1922.9315,288.37802 c 0.12,0 0.4,-0.2 0.52,-0.32 v -0.04 c 0.08,-0.28 0.24,-0.6 0.32,-0.84 0.88,-3.28 1.84,-6.52 2.76,-9.76 l 1.16,-4.04 c 0.68,-2.36 1.52,-4.8 2.32,-7.16 0.16,-0.36 0.28,-0.76 0.52,-1.12 0.16,-0.24 0.36,-0.48 0.68,-0.64 0.04,-0.04 0.12,-0.12 0.16,-0.2 0.04,-0.04 0.08,-0.08 0.08,-0.12 0.04,-0.16 -0.04,-0.36 -0.28,-0.44 -0.04,-0.04 -0.16,-0.08 -0.24,-0.08 -0.24,0 -0.52,0.16 -0.76,0.4 -0.16,0.12 -0.24,0.24 -0.32,0.4 l -0.4,0.56 c -0.44,1.16 -0.92,2.4 -1.32,3.68 -0.88,2.64 -1.68,5.28 -2.44,7.96 -0.76,2.64 -1.48,5.28 -2.24,7.96 l -0.64,2.2 c -0.08,0.2 -0.08,0.44 -0.16,0.72 l -0.16,0.52 c 0.08,0.12 0.16,0.28 0.32,0.28 0.08,0.04 0.08,0.08 0.12,0.08 z m -5,6.96 c -0.4,1.4 0.68,2.28 2.16,2.28 1.52,0 3.52,-1.08 4.28,-3.64 0.32,-1.08 -0.12,-2.92 -1.32,-2.92 -0.24,0 -0.56,0.08 -0.96,0.32 -2.64,1.52 -3.84,2.88 -4.16,3.96 z m 1.04,0.32 c 0.16,-1.4 2.32,-3.12 4.04,-3.44 0.36,0.52 0.36,1.2 0.2,1.72 -0.44,1.64 -1.76,2.88 -2.96,2.76 -0.88,-0.08 -1.32,-0.56 -1.28,-1.04 z"
             style="font-style:italic;font-family:'Bourdos PERSONAL USE ONLY';-inkscape-font-specification:'Bourdos PERSONAL USE ONLY, Italic'"
             id="path1080" />
        </g>
        <g
           aria-label="!"
           transform="matrix(0.45376564,-0.03850924,0.03850924,0.45376564,-912.52088,3.6127527)"
           id="text2684"
           style="font-size:40px;line-height:1.25;white-space:pre;shape-inside:url(#rect2686);opacity:0.750264;fill:#ffffff;filter:url(#filter2688)">
          <path
             d="m 1922.9315,288.37802 c 0.12,0 0.4,-0.2 0.52,-0.32 v -0.04 c 0.08,-0.28 0.24,-0.6 0.32,-0.84 0.88,-3.28 1.84,-6.52 2.76,-9.76 l 1.16,-4.04 c 0.68,-2.36 1.52,-4.8 2.32,-7.16 0.16,-0.36 0.28,-0.76 0.52,-1.12 0.16,-0.24 0.36,-0.48 0.68,-0.64 0.04,-0.04 0.12,-0.12 0.16,-0.2 0.04,-0.04 0.08,-0.08 0.08,-0.12 0.04,-0.16 -0.04,-0.36 -0.28,-0.44 -0.04,-0.04 -0.16,-0.08 -0.24,-0.08 -0.24,0 -0.52,0.16 -0.76,0.4 -0.16,0.12 -0.24,0.24 -0.32,0.4 l -0.4,0.56 c -0.44,1.16 -0.92,2.4 -1.32,3.68 -0.88,2.64 -1.68,5.28 -2.44,7.96 -0.76,2.64 -1.48,5.28 -2.24,7.96 l -0.64,2.2 c -0.08,0.2 -0.08,0.44 -0.16,0.72 l -0.16,0.52 c 0.08,0.12 0.16,0.28 0.32,0.28 0.08,0.04 0.08,0.08 0.12,0.08 z m -5,6.96 c -0.4,1.4 0.68,2.28 2.16,2.28 1.52,0 3.52,-1.08 4.28,-3.64 0.32,-1.08 -0.12,-2.92 -1.32,-2.92 -0.24,0 -0.56,0.08 -0.96,0.32 -2.64,1.52 -3.84,2.88 -4.16,3.96 z m 1.04,0.32 c 0.16,-1.4 2.32,-3.12 4.04,-3.44 0.36,0.52 0.36,1.2 0.2,1.72 -0.44,1.64 -1.76,2.88 -2.96,2.76 -0.88,-0.08 -1.32,-0.56 -1.28,-1.04 z"
             style="font-style:italic;font-family:'Bourdos PERSONAL USE ONLY';-inkscape-font-specification:'Bourdos PERSONAL USE ONLY, Italic'"
             id="path1083" />
        </g>
      </g>
    </g>
  </g>
</svg>
